<svg xmlns="http://www.w3.org/2000/svg" width="300" height="400"><path d="M-96-89l85 1 201-5z" fill="#ac4b44" stroke="#ac4b44" stroke-width="1.51"/><path d="M-11-88l77 12 124-17z" fill="#bb6c63" stroke="#bb6c63" stroke-width="1.51"/><path d="M360 210l-26 23 27 61z" fill="#88a4ce" stroke="#88a4ce" stroke-width="1.51"/><path d="M334 233l-7 33 34 28z" fill="#84a6d0" stroke="#84a6d0" stroke-width="1.51"/><path d="M156 486l-117 1 342 7z" fill="#788bae" stroke="#788bae" stroke-width="1.51"/><path d="M309 484l-153 2 225 8z" fill="#3b6d9d" stroke="#3b6d9d" stroke-width="1.51"/><path d="M325 361l51 33 7-82z" fill="#457fb4" stroke="#457fb4" stroke-width="1.51"/><path d="M379 191l-19 19 23 102z" fill="#8297bc" stroke="#8297bc" stroke-width="1.51"/><path d="M360 210l1 84 22 18z" fill="#7795be" stroke="#7795be" stroke-width="1.51"/><path d="M377 441l4 53 2-182z" fill="#225d99" stroke="#225d99" stroke-width="1.51"/><path d="M376 394l1 47 6-129z" fill="#2c6aa0" stroke="#2c6aa0" stroke-width="1.51"/><path d="M326 18l36 16 23-69z" fill="#925a73" stroke="#925a73" stroke-width="1.51"/><path d="M190-93l83 2 113-3z" fill="#7e5d70" stroke="#7e5d70" stroke-width="1.51"/><path d="M273-91l53 12 60-15z" fill="#704967" stroke="#704967" stroke-width="1.51"/><path d="M326-79l59 44 1-59z" fill="#703a5b" stroke="#703a5b" stroke-width="1.51"/><path d="M331 159l48 32 11-81z" fill="#9796b3" stroke="#9796b3" stroke-width="1.51"/><path d="M379 191l4 121 7-202z" fill="#8996b6" stroke="#8996b6" stroke-width="1.51"/><path d="M312 89l78 21 5-53z" fill="#9a7d90" stroke="#9a7d90" stroke-width="1.51"/><path d="M362 34l-50 55 83-32z" fill="#9c768b" stroke="#9c768b" stroke-width="1.51"/><path d="M385-35l-23 69 33 23z" fill="#895266" stroke="#895266" stroke-width="1.51"/><path d="M390 110l-7 202 12-255z" fill="#8d8aa3" stroke="#8d8aa3" stroke-width="1.51"/><path d="M386-94l-1 59 10 92z" fill="#7b3c53" stroke="#7b3c53" stroke-width="1.51"/><path d="M205 468l-49 18 153-2z" fill="#6988b0" stroke="#6988b0" stroke-width="1.51"/><path d="M376 394l-32 27 33 20z" fill="#2465a4" stroke="#2465a4" stroke-width="1.51"/><path d="M313-11l13 29 59-53z" fill="#955c75" stroke="#955c75" stroke-width="1.51"/><path d="M312 89l5 34 73-13z" fill="#a495ab" stroke="#a495ab" stroke-width="1.51"/><path d="M317 123l14 36 59-49z" fill="#a19cb6" stroke="#a19cb6" stroke-width="1.51"/><path d="M316 309l9 52 36-67z" fill="#649bc8" stroke="#649bc8" stroke-width="1.51"/><path d="M377 441l-68 43 72 10z" fill="#185392" stroke="#185392" stroke-width="1.51"/><path d="M361 294l-36 67 58-49z" fill="#5e8fbf" stroke="#5e8fbf" stroke-width="1.51"/><path d="M326-79l-13 68 72-24z" fill="#8d4e6b" stroke="#8d4e6b" stroke-width="1.51"/><path d="M344 421l-35 63 68-43z" fill="#2265a8" stroke="#2265a8" stroke-width="1.51"/><path d="M331 159l29 51 19-19z" fill="#98a4c7" stroke="#98a4c7" stroke-width="1.51"/><path d="M325 361l19 60 32-27z" fill="#3178b6" stroke="#3178b6" stroke-width="1.51"/><path d="M290 186l44 47 26-23z" fill="#9bb4d6" stroke="#9bb4d6" stroke-width="1.51"/><path d="M331 159l-41 27 70 24z" fill="#a0b3d1" stroke="#a0b3d1" stroke-width="1.51"/><path d="M326 18l-14 71 50-55z" fill="#a27b8d" stroke="#a27b8d" stroke-width="1.51"/><path d="M327 266l-11 43 45-15z" fill="#77a3cd" stroke="#77a3cd" stroke-width="1.51"/><path d="M274 424l35 60 35-63z" fill="#3177b3" stroke="#3177b3" stroke-width="1.51"/><path d="M289 393l-15 31 70-3z" fill="#3b85bc" stroke="#3b85bc" stroke-width="1.51"/><path d="M325 361l-36 32 55 28z" fill="#3b85bc" stroke="#3b85bc" stroke-width="1.51"/><path d="M274 424l-8 35 43 25z" fill="#427cb2" stroke="#427cb2" stroke-width="1.51"/><path d="M286 86l26 3 14-71z" fill="#ab919a" stroke="#ab919a" stroke-width="1.51"/><path d="M257 33l29 53 40-68z" fill="#b18f96" stroke="#b18f96" stroke-width="1.51"/><path d="M266-16l47 5 13-68z" fill="#9a6474" stroke="#9a6474" stroke-width="1.51"/><path d="M273-91l-7 75 60-63z" fill="#916273" stroke="#916273" stroke-width="1.51"/><path d="M290 186l-16 39 60 8z" fill="#a0c2dc" stroke="#a0c2dc" stroke-width="1.51"/><path d="M274 225l16 30 44-22z" fill="#98bfdb" stroke="#98bfdb" stroke-width="1.51"/><path d="M290 255l37 11 7-33z" fill="#8fb4d6" stroke="#8fb4d6" stroke-width="1.51"/><path d="M266 459l-61 9 104 16z" fill="#5280ae" stroke="#5280ae" stroke-width="1.51"/><path d="M290 255l26 54 11-43z" fill="#85b1d5" stroke="#85b1d5" stroke-width="1.51"/><path d="M317 123l-27 63 41-27z" fill="#a8b3c9" stroke="#a8b3c9" stroke-width="1.51"/><path d="M316 309h-56l65 52z" fill="#6aa9cf" stroke="#6aa9cf" stroke-width="1.51"/><path d="M268 116l22 70 27-63z" fill="#b2bbc9" stroke="#b2bbc9" stroke-width="1.51"/><path d="M260 309l29 84 36-32z" fill="#5ea1cc" stroke="#5ea1cc" stroke-width="1.51"/><path d="M313-11l-56 44 69-15z" fill="#a67a86" stroke="#a67a86" stroke-width="1.51"/><path d="M266-16l-9 49 56-44z" fill="#af7f86" stroke="#af7f86" stroke-width="1.51"/><path d="M290 255l-30 54h56z" fill="#87b9d8" stroke="#87b9d8" stroke-width="1.51"/><path d="M312 89l-26-3 31 37z" fill="#ada2ae" stroke="#ada2ae" stroke-width="1.51"/><path d="M286 86l-18 30 49 7z" fill="#b5adb6" stroke="#b5adb6" stroke-width="1.51"/><path d="M238-56l28 40 7-75z" fill="#a7727b" stroke="#a7727b" stroke-width="1.51"/><path d="M260 309l-37 27 66 57z" fill="#7eb6d6" stroke="#7eb6d6" stroke-width="1.51"/><path d="M243 14l14 19 9-49z" fill="#bf8e8f" stroke="#bf8e8f" stroke-width="1.51"/><path d="M257 33l-28 46 57 7z" fill="#c7aaa7" stroke="#c7aaa7" stroke-width="1.51"/><path d="M223 336l-7 47 73 10z" fill="#79b2d4" stroke="#79b2d4" stroke-width="1.51"/><path d="M229 282l31 27 30-54z" fill="#a0cae1" stroke="#a0cae1" stroke-width="1.51"/><path d="M274 225l-42 14 58 16z" fill="#afd0e4" stroke="#afd0e4" stroke-width="1.51"/><path d="M232 239l-3 43 61-27z" fill="#b3d5e7" stroke="#b3d5e7" stroke-width="1.51"/><path d="M216 158l58 67 16-39z" fill="#c0d6e4" stroke="#c0d6e4" stroke-width="1.51"/><path d="M268 116l-52 42 74 28z" fill="#c6cfd6" stroke="#c6cfd6" stroke-width="1.51"/><path d="M221 413l53 11 15-31z" fill="#5f9ac8" stroke="#5f9ac8" stroke-width="1.51"/><path d="M216 383l5 30 68-20z" fill="#71a7cf" stroke="#71a7cf" stroke-width="1.51"/><path d="M229 79l39 37 18-30z" fill="#c6b6b5" stroke="#c6b6b5" stroke-width="1.51"/><path d="M216 158l-24 47 40 34z" fill="#dce9f1" stroke="#dce9f1" stroke-width="1.51"/><path d="M208 130l8 28 52-42z" fill="#d7d4d3" stroke="#d7d4d3" stroke-width="1.51"/><path d="M216 158l16 81 42-14z" fill="#c9e0ec" stroke="#c9e0ec" stroke-width="1.51"/><path d="M221 413l45 46 8-35z" fill="#6095c6" stroke="#6095c6" stroke-width="1.51"/><path d="M190-93l48 37 35-35z" fill="#a2747c" stroke="#a2747c" stroke-width="1.51"/><path d="M238-56l-21 44 49-4z" fill="#be8284" stroke="#be8284" stroke-width="1.51"/><path d="M221 413l-16 55 61-9z" fill="#6d96c4" stroke="#6d96c4" stroke-width="1.51"/><path d="M229 79l-21 51 60-14z" fill="#d6c7c2" stroke="#d6c7c2" stroke-width="1.51"/><path d="M217-12l26 26 23-30z" fill="#c38d8d" stroke="#c38d8d" stroke-width="1.51"/><path d="M229 282l-6 54 37-27z" fill="#a1cce2" stroke="#a1cce2" stroke-width="1.51"/><path d="M243 14l-14 65 28-46z" fill="#cba39f" stroke="#cba39f" stroke-width="1.51"/><path d="M217-12l-56 25 82 1z" fill="#d79b95" stroke="#d79b95" stroke-width="1.51"/><path d="M164 69l65 10 14-65z" fill="#deb3aa" stroke="#deb3aa" stroke-width="1.51"/><path d="M161 13l3 56 79-55z" fill="#e4aca2" stroke="#e4aca2" stroke-width="1.51"/><path d="M194 416l11 52 16-55z" fill="#81a4cf" stroke="#81a4cf" stroke-width="1.51"/><path d="M189 288l34 48 6-54z" fill="#b3d5e7" stroke="#b3d5e7" stroke-width="1.51"/><path d="M189 288l40-6 3-43z" fill="#c2ddec" stroke="#c2ddec" stroke-width="1.51"/><path d="M190-93l27 81 21-44z" fill="#be8083" stroke="#be8083" stroke-width="1.51"/><path d="M190-93l-23 83 50-2z" fill="#d38b88" stroke="#d38b88" stroke-width="1.51"/><path d="M189 288l-8 35 42 13z" fill="#b6d6e8" stroke="#b6d6e8" stroke-width="1.51"/><path d="M174 358l42 25 7-47z" fill="#9ac3dd" stroke="#9ac3dd" stroke-width="1.51"/><path d="M164 69l44 61 21-51z" fill="#e9cbbf" stroke="#e9cbbf" stroke-width="1.51"/><path d="M192 205l-3 83 43-49z" fill="#d4e6f0" stroke="#d4e6f0" stroke-width="1.51"/><path d="M164 69l9 66 35-5z" fill="#efd7cc" stroke="#efd7cc" stroke-width="1.51"/><path d="M174 168l18 37 24-47z" fill="#e9eaeb" stroke="#e9eaeb" stroke-width="1.51"/><path d="M167-10l-6 23 56-25z" fill="#de9d95" stroke="#de9d95" stroke-width="1.51"/><path d="M216 383l-22 33 27-3z" fill="#84aed3" stroke="#84aed3" stroke-width="1.51"/><path d="M181 323l-7 35 49-22z" fill="#abcee3" stroke="#abcee3" stroke-width="1.51"/><path d="M135-55l32 45 23-83z" fill="#d28b88" stroke="#d28b88" stroke-width="1.51"/><path d="M79 473l-40 14 117-1z" fill="#91849a" stroke="#91849a" stroke-width="1.51"/><path d="M208 130l-35 5 43 23z" fill="#e9e0dc" stroke="#e9e0dc" stroke-width="1.51"/><path d="M173 135l1 33 42-10z" fill="#ece5e2" stroke="#ece5e2" stroke-width="1.51"/><path d="M174 358l20 58 22-33z" fill="#91bad9" stroke="#91bad9" stroke-width="1.51"/><path d="M124 285l65 3 3-83z" fill="#ddeaf2" stroke="#ddeaf2" stroke-width="1.51"/><path d="M115 212l9 73 68-80z" fill="#edf0f2" stroke="#edf0f2" stroke-width="1.51"/><path d="M194 416l-61 25 72 27z" fill="#8da5cf" stroke="#8da5cf" stroke-width="1.51"/><path d="M133 441l23 45 49-18z" fill="#8a9cc0" stroke="#8a9cc0" stroke-width="1.51"/><path d="M-19 466l-72-8 130 29z" fill="#864a61" stroke="#864a61" stroke-width="1.51"/><path d="M66-76l69 21 55-38z" fill="#c7817d" stroke="#c7817d" stroke-width="1.51"/><path d="M174 358l-30 7 50 51z" fill="#9dc0dc" stroke="#9dc0dc" stroke-width="1.51"/><path d="M144 365l-11 76 61-25z" fill="#9db7d8" stroke="#9db7d8" stroke-width="1.51"/><path d="M174 168l-29 4 47 33z" fill="#f1efee" stroke="#f1efee" stroke-width="1.51"/><path d="M145 172l-30 40 77-7z" fill="#f8f6f5" stroke="#f8f6f5" stroke-width="1.51"/><path d="M124 285l57 38 8-35z" fill="#cbe1ed" stroke="#cbe1ed" stroke-width="1.51"/><path d="M133 441l-4 29 27 16z" fill="#929bbc" stroke="#929bbc" stroke-width="1.51"/><path d="M104 84l15 55 45-70z" fill="#fbd0bc" stroke="#fbd0bc" stroke-width="1.51"/><path d="M164 69l-45 70 54-4z" fill="#faddd0" stroke="#faddd0" stroke-width="1.51"/><path d="M144 365l30-7 7-35z" fill="#b0cee3" stroke="#b0cee3" stroke-width="1.51"/><path d="M111 328l33 37 37-42z" fill="#bdd4e4" stroke="#bdd4e4" stroke-width="1.51"/><path d="M124 285l-13 43 70-5z" fill="#ccdde6" stroke="#ccdde6" stroke-width="1.51"/><path d="M129 470l-50 3 77 13z" fill="#9091ac" stroke="#9091ac" stroke-width="1.51"/><path d="M161 13l-41 1 44 55z" fill="#f0b2a3" stroke="#f0b2a3" stroke-width="1.51"/><path d="M135-55l-10 29 42 16z" fill="#e2938a" stroke="#e2938a" stroke-width="1.51"/><path d="M119 139l26 33 28-37z" fill="#fbeae0" stroke="#fbeae0" stroke-width="1.51"/><path d="M173 135l-28 37 29-4z" fill="#f5ebe5" stroke="#f5ebe5" stroke-width="1.51"/><path d="M120 14l-16 70 60-15z" fill="#f5baa6" stroke="#f5baa6" stroke-width="1.51"/><path d="M125-26l36 39 6-23z" fill="#e8a095" stroke="#e8a095" stroke-width="1.51"/><path d="M125-26l-5 40 41-1z" fill="#e99f91" stroke="#e99f91" stroke-width="1.51"/><path d="M74 418l59 23 11-76z" fill="#a5afc8" stroke="#a5afc8" stroke-width="1.51"/><path d="M104 84l-16 28 31 27z" fill="#fccfb8" stroke="#fccfb8" stroke-width="1.51"/><path d="M82 358l-8 60 70-53z" fill="#adb6c6" stroke="#adb6c6" stroke-width="1.51"/><path d="M119 139l-4 73 30-40z" fill="#fbebe1" stroke="#fbebe1" stroke-width="1.51"/><path d="M111 328l-29 30 62 7z" fill="#bac6d2" stroke="#bac6d2" stroke-width="1.51"/><path d="M-11-88l16 8 61 4z" fill="#b04741" stroke="#b04741" stroke-width="1.51"/><path d="M59 161l56 51 4-73z" fill="#fce0d1" stroke="#fce0d1" stroke-width="1.51"/><path d="M68 37l36 47 16-70z" fill="#f2ab92" stroke="#f2ab92" stroke-width="1.51"/><path d="M115 212l-55 13 64 60z" fill="#eee3dc" stroke="#eee3dc" stroke-width="1.51"/><path d="M60 225l-4 51 68 9z" fill="#e8d5cd" stroke="#e8d5cd" stroke-width="1.51"/><path d="M90-19l35-7 10-29z" fill="#e08a7e" stroke="#e08a7e" stroke-width="1.51"/><path d="M66-76l24 57 45-36z" fill="#d67e71" stroke="#d67e71" stroke-width="1.51"/><path d="M90-19l30 33 5-40z" fill="#e69483" stroke="#e69483" stroke-width="1.51"/><path d="M79 473l50-3 4-29z" fill="#9697b3" stroke="#9697b3" stroke-width="1.51"/><path d="M74 418l5 55 54-32z" fill="#9f99b5" stroke="#9f99b5" stroke-width="1.51"/><path d="M67 322l44 6 13-43z" fill="#d0d2d5" stroke="#d0d2d5" stroke-width="1.51"/><path d="M56 276l11 46 57-37z" fill="#d9ceca" stroke="#d9ceca" stroke-width="1.51"/><path d="M59 161l1 64 55-13z" fill="#faddce" stroke="#faddce" stroke-width="1.51"/><path d="M90-19L68 37l52-23z" fill="#ea9680" stroke="#ea9680" stroke-width="1.51"/><path d="M88 112l-29 49 60-22z" fill="#fdd4bd" stroke="#fdd4bd" stroke-width="1.51"/><path d="M68 37v46l36 1z" fill="#f6ae91" stroke="#f6ae91" stroke-width="1.51"/><path d="M67 322l15 36 29-30z" fill="#c5c2c6" stroke="#c5c2c6" stroke-width="1.51"/><path d="M68 83l20 29 16-28z" fill="#fabfa2" stroke="#fabfa2" stroke-width="1.51"/><path d="M13 366l61 52 8-60z" fill="#af9fa8" stroke="#af9fa8" stroke-width="1.51"/><path d="M36 119l23 42 29-49z" fill="#fac2a6" stroke="#fac2a6" stroke-width="1.51"/><path d="M36-12l32 49 22-56z" fill="#e3836b" stroke="#e3836b" stroke-width="1.51"/><path d="M66-76L36-12l54-7z" fill="#d9715e" stroke="#d9715e" stroke-width="1.51"/><path d="M74 418l-60 22 65 33z" fill="#a1869a" stroke="#a1869a" stroke-width="1.51"/><path d="M68 83l-32 36 52-7z" fill="#f9b899" stroke="#f9b899" stroke-width="1.51"/><path d="M56 276l-18 18 29 28z" fill="#d8beb6" stroke="#d8beb6" stroke-width="1.51"/><path d="M14 440l25 47 40-14z" fill="#977385" stroke="#977385" stroke-width="1.51"/><path d="M67 322l-54 44 69-8z" fill="#bfacac" stroke="#bfacac" stroke-width="1.51"/><path d="M59 161l-36 6 37 58z" fill="#f9c8b3" stroke="#f9c8b3" stroke-width="1.51"/><path d="M7 343l6 23 54-44z" fill="#be9e9f" stroke="#be9e9f" stroke-width="1.51"/><path d="M17 68l51 15V37z" fill="#f09c7a" stroke="#f09c7a" stroke-width="1.51"/><path d="M13 366l1 74 60-22z" fill="#a68795" stroke="#a68795" stroke-width="1.51"/><path d="M16 244l40 32 4-51z" fill="#ebc3b5" stroke="#ebc3b5" stroke-width="1.51"/><path d="M5-80l31 68 30-64z" fill="#c5594b" stroke="#c5594b" stroke-width="1.51"/><path d="M17 68l19 51 32-36z" fill="#f3a382" stroke="#f3a382" stroke-width="1.51"/><path d="M36-12L12 32l56 5z" fill="#e27b61" stroke="#e27b61" stroke-width="1.51"/><path d="M12 32l5 36 51-31z" fill="#e78669" stroke="#e78669" stroke-width="1.51"/><path d="M38 294L7 343l60-21z" fill="#cbaea8" stroke="#cbaea8" stroke-width="1.51"/><path d="M36 119l-13 48 36-6z" fill="#f7bba1" stroke="#f7bba1" stroke-width="1.51"/><path d="M23 167l-7 77 44-19z" fill="#f3c0b1" stroke="#f3c0b1" stroke-width="1.51"/><path d="M16 244l22 50 18-18z" fill="#e1baaf" stroke="#e1baaf" stroke-width="1.51"/><path d="M-33 234l49 10 7-77z" fill="#ebab9f" stroke="#ebab9f" stroke-width="1.51"/><path d="M5-80l-32 38 63 30z" fill="#c3443d" stroke="#c3443d" stroke-width="1.51"/><path d="M-10 12l22 20 24-44z" fill="#d86550" stroke="#d86550" stroke-width="1.51"/><path d="M-35 119l58 48 13-48z" fill="#efa189" stroke="#efa189" stroke-width="1.51"/><path d="M17 68l-52 51h71z" fill="#ea9176" stroke="#ea9176" stroke-width="1.51"/><path d="M16 244l-50 43 72 7z" fill="#d9a59d" stroke="#d9a59d" stroke-width="1.51"/><path d="M-34 287l41 56 31-49z" fill="#ca9a97" stroke="#ca9a97" stroke-width="1.51"/><path d="M14 440l-33 26 58 21z" fill="#916075" stroke="#916075" stroke-width="1.51"/><path d="M-34 287l-2 33 43 23z" fill="#c08b8b" stroke="#c08b8b" stroke-width="1.51"/><path d="M13 366l-52 62 53 12z" fill="#9e6e80" stroke="#9e6e80" stroke-width="1.51"/><path d="M-31 161l-2 73 56-67z" fill="#eaa294" stroke="#eaa294" stroke-width="1.51"/><path d="M-35 119l4 42 54 6z" fill="#e99886" stroke="#e99886" stroke-width="1.51"/><path d="M-27-42l17 54 46-24z" fill="#cc4f43" stroke="#cc4f43" stroke-width="1.51"/><path d="M-44 373l5 55 52-62z" fill="#9f6d7d" stroke="#9f6d7d" stroke-width="1.51"/><path d="M-46 85l11 34 52-51z" fill="#e07c65" stroke="#e07c65" stroke-width="1.51"/><path d="M-33 234l-1 53 50-43z" fill="#db9b95" stroke="#db9b95" stroke-width="1.51"/><path d="M12 32l-58 53 63-17z" fill="#df755d" stroke="#df755d" stroke-width="1.51"/><path d="M-10 12l-36 73 58-53z" fill="#d76552" stroke="#d76552" stroke-width="1.51"/><path d="M-39 428l20 38 33-26z" fill="#935b75" stroke="#935b75" stroke-width="1.51"/><path d="M7 343l-51 30 57-7z" fill="#ae8088" stroke="#ae8088" stroke-width="1.51"/><path d="M-11-88l-16 46L5-80z" fill="#ad3335" stroke="#ad3335" stroke-width="1.51"/><path d="M-36 320l-8 53 51-30z" fill="#b17e85" stroke="#b17e85" stroke-width="1.51"/><path d="M-61 237l28-3 2-73z" fill="#df948d" stroke="#df948d" stroke-width="1.51"/><path d="M-96-89l69 47 16-46z" fill="#9f172a" stroke="#9f172a" stroke-width="1.51"/><path d="M-95 44l49 41 36-73z" fill="#cb5346" stroke="#cb5346" stroke-width="1.51"/><path d="M-70-8l-25 52 85-32z" fill="#bd3d3a" stroke="#bd3d3a" stroke-width="1.51"/><path d="M-27-42L-70-8l60 20z" fill="#c03837" stroke="#c03837" stroke-width="1.51"/><path d="M-61 237l27 50 1-53z" fill="#d48d8b" stroke="#d48d8b" stroke-width="1.51"/><path d="M-93 164l32 73 30-76z" fill="#d68984" stroke="#d68984" stroke-width="1.51"/><path d="M-35 119l-22 17 26 25z" fill="#e18777" stroke="#e18777" stroke-width="1.51"/><path d="M-39 428l-52 30 72 8z" fill="#874563" stroke="#874563" stroke-width="1.51"/><path d="M-95 44l9 33 40 8z" fill="#bd584c" stroke="#bd584c" stroke-width="1.51"/><path d="M-44 373l-32 15 37 40z" fill="#935b70" stroke="#935b70" stroke-width="1.51"/><path d="M-76 388l4 35 33 5z" fill="#88526c" stroke="#88526c" stroke-width="1.51"/><path d="M-61 237l-14 42 41 8z" fill="#c78485" stroke="#c78485" stroke-width="1.51"/><path d="M-96-89l26 81 43-34z" fill="#a31329" stroke="#a31329" stroke-width="1.51"/><path d="M-72 423l-19 35 52-30z" fill="#7e4767" stroke="#7e4767" stroke-width="1.51"/><path d="M-88 305l44 68 8-53z" fill="#ab737c" stroke="#ab737c" stroke-width="1.51"/><path d="M-75 279l-13 26 52 15z" fill="#b0797f" stroke="#b0797f" stroke-width="1.51"/><path d="M-75 279l39 41 2-33z" fill="#c18183" stroke="#c18183" stroke-width="1.51"/><path d="M-57 136l-36 28 62-3z" fill="#d68278" stroke="#d68278" stroke-width="1.51"/><path d="M-46 85l-11 51 22-17z" fill="#db7968" stroke="#db7968" stroke-width="1.51"/><path d="M-88 305l12 83 32-15z" fill="#956675" stroke="#956675" stroke-width="1.51"/><path d="M-86 77l29 59 11-51z" fill="#cd6b5d" stroke="#cd6b5d" stroke-width="1.51"/><path d="M-86 77l-7 87 36-28z" fill="#c47268" stroke="#c47268" stroke-width="1.51"/><path d="M-93 164l18 115 14-42z" fill="#c28485" stroke="#c28485" stroke-width="1.51"/><path d="M-93 164l5 141 13-26z" fill="#b47e82" stroke="#b47e82" stroke-width="1.51"/><path d="M-96-89l1 133 25-52z" fill="#9c212c" stroke="#9c212c" stroke-width="1.51"/><path d="M-76 388l-15 70 19-35z" fill="#774868" stroke="#774868" stroke-width="1.51"/><path d="M-88 305l-3 153 15-70z" fill="#7c566e" stroke="#7c566e" stroke-width="1.51"/><path d="M-95 44l2 120 7-87z" fill="#b56156" stroke="#b56156" stroke-width="1.51"/><path d="M-93 164l2 294 3-153z" fill="#986f7a" stroke="#986f7a" stroke-width="1.51"/></svg>