<svg xmlns="http://www.w3.org/2000/svg" id="Ebene_1" width="90" height="30" viewBox="0 0 755.9 254.1"><style>.st0{fill:#fff}</style><path class="st0" d="M231.8 14.7c.2-5.5-3.5-8-7-8L8 0C2.1 0 1 5.6 1 7L0 247.1c0 2.1 1.4 6.9 7 7l218-25.2c6-.6 6.8-5.5 6.8-7V14.7zM125.4 167.3c-36.9 10-71.8.2-77.8-22s19-48.4 55.9-58.4c30.5-8.3 59.6-3 72.2 11.6-7.5 1.1-14.1 2.7-18.7 3.9-5.4-9.6-22.3-13.1-40.2-8.3-19.8 5.4-33.2 19.4-29.9 31.3 3.2 11.9 21.9 17.2 41.6 11.8 19.8-5.4 33.2-19.4 29.9-31.3v-.1c4.9-1.3 11.9-3 19.8-3.9 1.4 2.2 2.5 4.5 3.1 7.1 6.1 22.1-18.9 48.2-55.9 58.3zM338.9 149.6c0 10.9-8.8 20.4-20 20.4-9.6 0-20.7-4.7-20.7-20.7v-48.4c0-11.5 8.3-20.2 20.5-20.2 11.6 0 20.2 8.8 20.2 21v4.9h-12.6v-4.2c0-4.9-3-9.1-7.8-9.1-6.3 0-7.8 4.3-7.8 10.2v44.9c0 5.1 2 9 7.7 9 3.5 0 7.9-2 7.9-8.9v-4.3h12.6v5.4zM347.9 81.3h12.6v75.3h24.9v12.6h-37.5V81.3zM392.7 81.3h12.6v87.9h-12.6V81.3zM456.2 149.6c0 10.9-8.8 20.4-20 20.4-9.6 0-20.7-4.7-20.7-20.7v-48.4c0-11.5 8.3-20.2 20.5-20.2 11.6 0 20.2 8.8 20.2 21v4.9h-12.6v-4.2c0-4.9-3-9.1-7.8-9.1-6.3 0-7.8 4.3-7.8 10.2v44.9c0 5.1 2 9 7.7 9 3.5 0 7.9-2 7.9-8.9v-4.3h12.6v5.4zM465.2 81.3h12.6v40.1h.3l18.4-40.1h12.6l-17.2 35.2 20.4 52.7H499l-14.3-39-6.8 12.7v26.3h-12.6V81.3zM521.5 81.3h18.9c6.9 0 12 1.6 16.3 6.2 4.3 4.6 5.7 10.1 5.7 20.6 0 7.7-.6 12.8-3.6 17.7-3.5 5.7-9 9.1-18.3 9.1h-6.4v34.3h-12.6V81.3zm12.6 41.8h6c10.2 0 10.4-6 10.4-14.8 0-8.3 0-15.1-9.9-15.1h-6.5v29.9zM570.5 81.3h20.2c14.9 0 22.2 8.8 22.2 25.8 0 10.1-2.8 17.5-10.9 22l13.6 40.1h-13.3l-11.7-37.5h-7.5v37.5h-12.6V81.3zm12.6 39.3h7.2c8.8 0 10.1-4.9 10.1-13.7 0-8.9-1.5-13.7-10.7-13.7h-6.5v27.4zM621.9 81.3h37.5v11.8h-24.9V119h21.7v11.8h-21.7v25.8h24.9v12.6h-37.5V81.3zM707 106.6h-12.6v-2.8c0-5.8-2.5-10.6-8.9-10.6-6.9 0-8.5 5.6-8.5 11.4 0 6.8.6 9.1 7.2 11.7l9.6 3.8c11.1 4.2 13.2 11.2 13.2 24.1 0 14.8-5.4 25.8-21.7 25.8-12.2 0-21.5-9-21.5-20.9v-4.7h12.6v4c0 4.6 2.5 9 8.9 9 8.5 0 9.1-5.1 9.1-13.1 0-9.4-1.1-10.9-7.3-13.3l-9-3.7c-10.9-4.4-13.7-11.6-13.7-22.6 0-13.3 7.2-24.1 21.6-24.1 12.6 0 21 10.1 21 19.9v6.1zM755.9 106.6h-12.6v-2.8c0-5.8-2.5-10.6-8.9-10.6-6.9 0-8.5 5.6-8.5 11.4 0 6.8.6 9.1 7.2 11.7l9.6 3.8c11.1 4.2 13.2 11.2 13.2 24.1 0 14.8-5.4 25.8-21.7 25.8-12.2 0-21.5-9-21.5-20.9v-4.7h12.6v4c0 4.6 2.5 9 8.9 9 8.5 0 9.1-5.1 9.1-13.1 0-9.4-1.1-10.9-7.3-13.3l-9-3.7c-10.9-4.4-13.7-11.6-13.7-22.6 0-13.3 7.2-24.1 21.6-24.1 12.6 0 21 10.1 21 19.9v6.1z"/></svg>